<?xml version="1.0" standalone="no"?><!DOCTYPE svg PUBLIC "-//W3C//DTD SVG 1.1//EN" "http://www.w3.org/Graphics/SVG/1.1/DTD/svg11.dtd"><svg t="1681454432041" class="icon" viewBox="0 0 1024 1024" version="1.1" xmlns="http://www.w3.org/2000/svg" p-id="3357" width="48" height="48" xmlns:xlink="http://www.w3.org/1999/xlink"><path d="M170.666667 962.133333a341.333333 32 0 1 0 682.666666 0 341.333333 32 0 1 0-682.666666 0Z" fill="#45413C" p-id="3358"></path><path d="M910.933333 202.666667c10.666667-14.933333 17.066667-34.133333 17.066667-55.466667 0-53.333333-42.666667-96-96-96-21.333333 0-40.533333 6.4-55.466667 17.066667-6.4-23.466667-25.6-38.4-51.2-38.4-29.866667 0-53.333333 23.466667-53.333333 53.333333s23.466667 53.333333 53.333333 53.333333c4.266667 0 8.533333 0 12.8-2.133333 0 4.266667-2.133333 8.533333-2.133333 12.8 0 53.333333 42.666667 96 96 96 4.266667 0 8.533333 0 12.8-2.133333 0 4.266667-2.133333 8.533333-2.133333 12.8 0 29.866667 23.466667 53.333333 53.333333 53.333333s53.333333-23.466667 53.333333-53.333333c0-25.6-17.066667-44.8-38.4-51.2zM113.066667 202.666667c-10.666667-14.933333-17.066667-34.133333-17.066667-55.466667 0-53.333333 42.666667-96 96-96 21.333333 0 40.533333 6.4 55.466667 17.066667 6.4-23.466667 25.6-38.4 51.2-38.4 29.866667 0 53.333333 23.466667 53.333333 53.333333S328.533333 136.533333 298.666667 136.533333c-4.266667 0-8.533333 0-12.8-2.133333 0 4.266667 2.133333 8.533333 2.133333 12.8 0 53.333333-42.666667 96-96 96-4.266667 0-8.533333 0-12.8-2.133333 0 4.266667 2.133333 8.533333 2.133333 12.8 0 29.866667-23.466667 53.333333-53.333333 53.333333s-53.333333-23.466667-53.333333-53.333333c0-25.6 17.066667-44.8 38.4-51.2z" fill="#00B8F0" p-id="3359"></path><path d="M512 477.866667m-426.666667 0a426.666667 426.666667 0 1 0 853.333334 0 426.666667 426.666667 0 1 0-853.333334 0Z" fill="#FFFCE5" p-id="3360"></path><path d="M512 51.2c-234.666667 0-426.666667 192-426.666667 426.666667s192 426.666667 426.666667 426.666666 426.666667-192 426.666667-426.666666-192-426.666667-426.666667-426.666667z m0 789.333333c-215.466667 0-388.266667-174.933333-388.266667-390.4-2.133333-213.333333 172.8-388.266667 388.266667-388.266666s388.266667 174.933333 388.266667 388.266666c0 215.466667-172.8 390.4-388.266667 390.4z" fill="#FFFACF" p-id="3361"></path><path d="M384 136.533333a128 32 0 1 0 256 0 128 32 0 1 0-256 0Z" fill="#FFFFFF" p-id="3362"></path><path d="M725.333333 584.533333a53.333333 32 0 1 0 106.666667 0 53.333333 32 0 1 0-106.666667 0Z" fill="#FF87AF" p-id="3363"></path><path d="M192 584.533333a53.333333 32 0 1 0 106.666667 0 53.333333 32 0 1 0-106.666667 0Z" fill="#FF87AF" p-id="3364"></path><path d="M416 552.533333a96 74.666667 0 1 0 192 0 96 74.666667 0 1 0-192 0Z" fill="#FF6242" p-id="3365"></path><path d="M512 520.533333c42.666667 0 78.933333 23.466667 91.733333 53.333334 2.133333-6.4 4.266667-12.8 4.266667-21.333334 0-40.533333-42.666667-74.666667-96-74.666666s-96 34.133333-96 74.666666c0 8.533333 2.133333 14.933333 4.266667 21.333334 12.8-32 49.066667-53.333333 91.733333-53.333334z" fill="#FF866E" p-id="3366"></path><path d="M512 808.533333c-102.4 0-168.533333-53.333333-192-85.333333-17.066667-23.466667-12.8-57.6 12.8-74.666667 23.466667-17.066667 57.6-12.8 74.666667 10.666667 2.133333 2.133333 34.133333 42.666667 106.666666 42.666667s104.533333-40.533333 106.666667-42.666667c17.066667-23.466667 51.2-27.733333 74.666667-10.666667s27.733333 49.066667 10.666666 72.533334c-25.6 34.133333-91.733333 87.466667-194.133333 87.466666z" fill="#FF6242" p-id="3367"></path><path d="M311.466667 684.8c25.6-19.2 61.866667-12.8 81.066666 12.8 2.133333 2.133333 38.4 46.933333 117.333334 46.933333 81.066667 0 117.333333-44.8 117.333333-46.933333 19.2-25.6 55.466667-29.866667 83.2-10.666667l2.133333 2.133334c-2.133333-14.933333-8.533333-29.866667-21.333333-38.4-23.466667-17.066667-55.466667-12.8-74.666667 10.666666-2.133333 2.133333-34.133333 42.666667-106.666666 42.666667s-104.533333-40.533333-106.666667-42.666667c-17.066667-23.466667-51.2-27.733333-74.666667-10.666666-12.8 8.533333-21.333333 23.466667-21.333333 38.4l4.266667-4.266667z" fill="#FF866E" p-id="3368"></path><path d="M640 435.2a85.333333 74.666667 90 1 0 149.333333 0 85.333333 74.666667 90 1 0-149.333333 0Z" fill="#4ACFFF" p-id="3369"></path><path d="M234.666667 435.2a85.333333 74.666667 90 1 0 149.333333 0 85.333333 74.666667 90 1 0-149.333333 0Z" fill="#4ACFFF" p-id="3370"></path><path d="M309.333333 435.2m-21.333333 0a21.333333 21.333333 0 1 0 42.666667 0 21.333333 21.333333 0 1 0-42.666667 0Z" fill="#45413C" p-id="3371"></path><path d="M714.666667 435.2m-21.333334 0a21.333333 21.333333 0 1 0 42.666667 0 21.333333 21.333333 0 1 0-42.666667 0Z" fill="#45413C" p-id="3372"></path></svg>